Run_30002
nRows=4
nColumns=164

# SIMM Motion File Header:
name Run_30002
datacolumns 164
datarows 4
otherdata 1
range 2.94000000 2.97000000
endheader
time	pelvis_tilt	pelvis_list	pelvis_rotation	pelvis_tx	pelvis_ty	pelvis_tz	hip_flexion_r	hip_adduction_r	hip_rotation_r	knee_angle_r	ankle_angle_r	hip_flexion_l	hip_adduction_l	hip_rotation_l	knee_angle_l	ankle_angle_l	lumbar_extension	lumbar_bending	lumbar_rotation	arm_flex_r	arm_add_r	arm_rot_r	elbow_flex_r	pro_sup_r	arm_flex_l	arm_add_l	arm_rot_l	elbow_flex_l	pro_sup_l	subtalar_angle_r	mtp_angle_r	subtalar_angle_l	mtp_angle_l	wrist_flex_r	wrist_dev_r	wrist_flex_l	wrist_dev_l	LASI_tx	LASI_ty	LASI_tz	RASI_tx	RASI_ty	RASI_tz	LPSI_tx	LPSI_ty	LPSI_tz	RPSI_tx	RPSI_ty	RPSI_tz	RTH1_tx	RTH1_ty	RTH1_tz	RTH2_tx	RTH2_ty	RTH2_tz	RTH3_tx	RTH3_ty	RTH3_tz	LTH1_tx	LTH1_ty	LTH1_tz	LTH2_tx	LTH2_ty	LTH2_tz	LTH3_tx	LTH3_ty	LTH3_tz	RTB1_tx	RTB1_ty	RTB1_tz	RTB2_tx	RTB2_ty	RTB2_tz	RTB3_tx	RTB3_ty	RTB3_tz	LTB1_tx	LTB1_ty	LTB1_tz	LTB2_tx	LTB2_ty	LTB2_tz	LTB3_tx	LTB3_ty	LTB3_tz	RCAL_tx	RCAL_ty	RCAL_tz	RTOE_tx	RTOE_ty	RTOE_tz	RMT5_tx	RMT5_ty	RMT5_tz	LCAL_tx	LCAL_ty	LCAL_tz	LTOE_tx	LTOE_ty	LTOE_tz	LMT5_tx	LMT5_ty	LMT5_tz	LACR_tx	LACR_ty	LACR_tz	RACR_tx	RACR_ty	RACR_tz	CLAV_tx	CLAV_ty	CLAV_tz	C7_tx	C7_ty	C7_tz	RUA1_tx	RUA1_ty	RUA1_tz	RUA2_tx	RUA2_ty	RUA2_tz	RUA3_tx	RUA3_ty	RUA3_tz	RLEL_tx	RLEL_ty	RLEL_tz	RMEL_tx	RMEL_ty	RMEL_tz	LUA1_tx	LUA1_ty	LUA1_tz	LUA2_tx	LUA2_ty	LUA2_tz	LUA3_tx	LUA3_ty	LUA3_tz	LLEL_tx	LLEL_ty	LLEL_tz	LMEL_tx	LMEL_ty	LMEL_tz	RFAsuperior_tx	RFAsuperior_ty	RFAsuperior_tz	RFAradius_tx	RFAradius_ty	RFAradius_tz	RFAulna_tx	RFAulna_ty	RFAulna_tz	LFAsuperior_tx	LFAsuperior_ty	LFAsuperior_tz	LFAradius_tx	LFAradius_ty	LFAradius_tz	LFAulna_tx	LFAulna_ty	LFAulna_tz
      2.94000000	      2.44187804	     -7.04709364	     -2.95238233	      1.23779388	      0.96110496	     -0.35192414	     22.33804188	     12.37127946	      0.87279257	    -41.24009663	     14.84004558	     -4.17754403	     -1.30595090	     -3.47698958	    -88.51127191	     -3.38400935	    -19.86423390	     13.02761534	      3.82826695	    -25.22497758	    -19.70783070	     -2.64003444	    118.15636678	     88.92523837	    -22.85060187	    -10.95520480	      5.77036185	    109.79208231	     94.53993346	      0.00000000	      0.00000000	      0.00000000	      0.00000000	      0.00000000	      0.00000000	      0.00000000	      0.00000000	      1.24884412	      0.97363062	     -0.47738724	      1.24079334	      0.98919800	     -0.21885352	      1.07644140	      1.02923838	     -0.40769557	      1.07003432	      1.03256254	     -0.31675279	      1.22527780	      0.83283059	     -0.16225568	      1.28989626	      0.74738750	     -0.17348036	      1.27357535	      0.60568824	     -0.19989810	      1.17585863	      0.81358926	     -0.52751027	      1.23072980	      0.68432499	     -0.50575934	      1.15324962	      0.57078669	     -0.49945960	      1.33687809	      0.35095248	     -0.28138622	      1.27680605	      0.25445399	     -0.23877686	      1.28007791	      0.18519087	     -0.30773402	      1.00219867	      0.39810843	     -0.42663167	      0.93960980	      0.42851777	     -0.46982583	      0.86284715	      0.40615157	     -0.41697533	      1.14181402	      0.10218863	     -0.30477656	      1.37596916	      0.07778567	     -0.32302751	      1.36016429	      0.05505763	     -0.24648831	      0.74094401	      0.51678160	     -0.40022827	      0.70100389	      0.27781723	     -0.38032755	      0.68092954	      0.30641021	     -0.46574215	      1.27500061	      1.50487071	     -0.48863969	      1.25382009	      1.45380744	     -0.14192660	      1.30895199	      1.42002602	     -0.28719113	      1.20427847	      1.52026416	     -0.31728646	      1.17926143	      1.32542233	     -0.06747277	      1.10980470	      1.32766414	     -0.06703348	      1.11343116	      1.25456871	     -0.05464194	      1.06750452	      1.18823612	     -0.03758121	      1.03145014	      1.19628007	     -0.12399224	      1.20349741	      1.40730085	     -0.57240035	      1.11562802	      1.37674341	     -0.56452161	      1.13784983	      1.30020108	     -0.60280444	      1.10560836	      1.24043619	     -0.62305615	      1.06102568	      1.23452126	     -0.54213260	      1.15020331	      1.16254819	     -0.05353677	      1.29514655	      1.13123059	     -0.14085332	      1.27053769	      1.06582344	     -0.12309363	      1.17552537	      1.18755672	     -0.60064125	      1.30920862	      1.13373515	     -0.49003866	      1.28522802	      1.07238280	     -0.51979134
      2.95000000	      3.08951903	     -7.17255218	     -2.40353507	      1.23460648	      0.95558522	     -0.35322940	     21.50099946	     12.42107460	      0.32199288	    -44.49068155	     17.54919552	     -1.98139283	     -1.74663874	     -3.12951793	    -92.53382945	     -1.68307037	    -20.89876360	     13.46161056	      5.04710923	    -22.85101992	    -19.48708034	     -2.72417666	    115.72920356	     88.90720254	    -22.84247904	    -10.31245159	      5.17933326	    105.96856861	     95.60164716	      0.00000000	      0.00000000	      0.00000000	      0.00000000	      0.00000000	      0.00000000	      0.00000000	      0.00000000	      1.24438076	      0.96775058	     -0.47874041	      1.23948946	      0.98419986	     -0.21898394	      1.07313765	      1.02270918	     -0.40755265	      1.06735263	      1.02660416	     -0.31667798	      1.22353619	      0.82732938	     -0.16197341	      1.28658472	      0.74044554	     -0.17294472	      1.26964961	      0.59921680	     -0.20091499	      1.17477994	      0.80812520	     -0.52830184	      1.23590284	      0.68141238	     -0.50839092	      1.16403750	      0.56513204	     -0.50135198	      1.32405083	      0.34488013	     -0.28383856	      1.25904997	      0.25156237	     -0.23980621	      1.25631839	      0.18253438	     -0.30913590	      1.01960935	      0.39534683	     -0.42729687	      0.95793429	      0.42564992	     -0.47155712	      0.88083564	      0.40556225	     -0.41838205	      1.11301129	      0.10379492	     -0.30559178	      1.34707917	      0.07569384	     -0.32381508	      1.33091435	      0.05467933	     -0.24669733	      0.75790353	      0.51849867	     -0.40422448	      0.71967570	      0.27958484	     -0.38063578	      0.70203897	      0.30622659	     -0.46712837	      1.27152730	      1.49717964	     -0.48922018	      1.25576777	      1.44442977	     -0.14049935	      1.30885056	      1.41227589	     -0.28782708	      1.20474270	      1.51460353	     -0.31536692	      1.18639220	      1.30992509	     -0.06855545	      1.11723841	      1.31065618	     -0.06258720	      1.12311698	      1.23660990	     -0.05531397	      1.08024260	      1.16949599	     -0.03618308	      1.04125159	      1.17678449	     -0.12110466	      1.19638135	      1.39897721	     -0.57096008	      1.10762946	      1.36948285	     -0.55969576	      1.12783368	      1.29233562	     -0.59807403	      1.09420343	      1.23352098	     -0.61877853	      1.05277723	      1.22698874	     -0.53635272	      1.16316382	      1.14458329	     -0.05403232	      1.30607875	      1.11375433	     -0.14275641	      1.28125177	      1.04815401	     -0.12398127	      1.16302728	      1.17697694	     -0.59953511	      1.29703054	      1.11211200	     -0.49720523	      1.26901570	      1.05330940	     -0.52926266
      2.96000000	      3.55803312	     -7.07709389	     -1.46921473	      1.23190442	      0.95118032	     -0.35520289	     20.19621707	     12.08070515	     -0.31867984	    -46.63377053	     20.10736062	      0.55881244	     -1.89930900	     -2.33373886	    -95.98140365	     -0.24101651	    -21.54507691	     13.75000954	      5.94630442	    -20.84405841	    -19.00161375	     -3.07917491	    113.76242931	     88.83356397	    -22.88457916	     -9.90727636	      4.81094586	    102.46326426	     97.04997703	      0.00000000	      0.00000000	      0.00000000	      0.00000000	      0.00000000	      0.00000000	      0.00000000	      0.00000000	      1.23972888	      0.96299599	     -0.48102067	      1.23893291	      0.98011814	     -0.21998145	      1.07002963	      1.01803177	     -0.40650871	      1.06546967	      1.02242853	     -0.31534984	      1.22216428	      0.82176708	     -0.16251493	      1.28273860	      0.73325048	     -0.17344070	      1.26314482	      0.59174647	     -0.20224325	      1.17293436	      0.80455176	     -0.52913938	      1.24208633	      0.67988233	     -0.51075684	      1.17595486	      0.56171542	     -0.50417553	      1.30864956	      0.33763263	     -0.28489027	      1.23842570	      0.24798398	     -0.24007027	      1.23127838	      0.17946096	     -0.30954608	      1.03789639	      0.39309391	     -0.42861179	      0.97694630	      0.42314096	     -0.47364867	      0.89962153	      0.40410270	     -0.42017168	      1.08376533	      0.10507863	     -0.30579467	      1.31778237	      0.07440307	     -0.32396859	      1.30123763	      0.05396158	     -0.24657015	      0.77442650	      0.51804682	     -0.40854533	      0.74069392	      0.27901030	     -0.38013918	      0.72428000	      0.30318881	     -0.46748059	      1.26711690	      1.49117045	     -0.48951076	      1.25833141	      1.43662432	     -0.13973936	      1.30837844	      1.40599987	     -0.28877970	      1.20471380	      1.51003309	     -0.31366873	      1.19414735	      1.29759081	     -0.07067871	      1.12527757	      1.29682146	     -0.06065169	      1.13293847	      1.22239651	     -0.05640716	      1.09344018	      1.15371439	     -0.03649196	      1.05043153	      1.16005332	     -0.11949407	      1.18912423	      1.39302636	     -0.56943753	      1.09976114	      1.36441370	     -0.55445074	      1.11761830	      1.28726114	     -0.59403296	      1.08290476	      1.22877658	     -0.61488891	      1.04416873	      1.22122102	     -0.53119984	      1.17717805	      1.13145223	     -0.05712770	      1.31768284	      1.10005359	     -0.14573586	      1.29260738	      1.03415923	     -0.12609860	      1.15127707	      1.16960948	     -0.59836779	      1.28364396	      1.09370639	     -0.50384252	      1.25182207	      1.03783979	     -0.53822788
      2.97000000	      3.77619888	     -6.82498824	     -0.40350800	      1.22962676	      0.94768617	     -0.35713841	     18.70980934	     11.57101368	     -0.92545282	    -48.03018391	     22.40973903	      3.43610931	     -1.85538447	     -1.39970778	    -98.83585657	      0.99831084	    -21.76127278	     13.85001264	      6.76593490	    -19.39961920	    -18.27044877	     -3.68271276	    112.66660048	     88.31032087	    -23.14005144	     -9.86505847	      4.67598322	     99.71140745	     98.26582364	      0.00000000	      0.00000000	      0.00000000	      0.00000000	      0.00000000	      0.00000000	      0.00000000	      0.00000000	      1.23556401	      0.95958739	     -0.48332771	      1.23873570	      0.97656969	     -0.22130385	      1.06699754	      1.01498726	     -0.40469395	      1.06437387	      1.01974053	     -0.31312571	      1.22060205	      0.81669948	     -0.16339074	      1.27858662	      0.72648508	     -0.17410242	      1.25489804	      0.58453794	     -0.20346117	      1.17026584	      0.80194827	     -0.52997003	      1.24899275	      0.67972022	     -0.51292273	      1.18895068	      0.55992118	     -0.50761685	      1.29131016	      0.33015298	     -0.28494290	      1.21635332	      0.24458753	     -0.24000273	      1.20558678	      0.17673716	     -0.30935828	      1.05684887	      0.39145125	     -0.43057906	      0.99622212	      0.42119085	     -0.47580009	      0.91886058	      0.40186054	     -0.42225916	      1.05437802	      0.10636840	     -0.30544638	      1.28822730	      0.07346006	     -0.32402118	      1.27139668	      0.05348231	     -0.24632704	      0.79039500	      0.51532172	     -0.41235364	      0.76376021	      0.27599503	     -0.37949751	      0.74729357	      0.29785447	     -0.46741861	      1.26152728	      1.48705664	     -0.48969936	      1.26184436	      1.43054997	     -0.13961875	      1.30785445	      1.40137349	     -0.28996200	      1.20406849	      1.50616798	     -0.31223863	      1.20205515	      1.28869632	     -0.07315749	      1.13322020	      1.28633040	     -0.06118442	      1.14237999	      1.21211956	     -0.05781400	      1.10597299	      1.14187796	     -0.03818600	      1.05829631	      1.14739939	     -0.11906464	      1.18108980	      1.38963555	     -0.56784372	      1.09150007	      1.36182460	     -0.54912713	      1.10690267	      1.28524135	     -0.59067988	      1.07132499	      1.22699826	     -0.61161733	      1.03474737	      1.21804597	     -0.52707471	      1.19070290	      1.12287905	     -0.06179237	      1.32911728	      1.09173581	     -0.14960320	      1.30415945	      1.02530956	     -0.13012922	      1.13940658	      1.16572867	     -0.59780005	      1.26942949	      1.08004337	     -0.51013251	      1.23394944	      1.02712652	     -0.54617014
